<svg width="33" height="33" viewBox="0 0 33 33" fill="none" xmlns="http://www.w3.org/2000/svg">
<path d="M25.9993 3.17969H8.66602C7.05802 3.17969 4.66602 4.24502 4.66602 7.17969V25.8464C4.66602 28.781 7.05802 29.8464 8.66602 29.8464H28.666V27.1797H8.68202C8.06602 27.1637 7.33268 26.9197 7.33268 25.8464C7.33268 25.7117 7.34468 25.5917 7.36468 25.4824C7.51402 24.7157 8.14202 24.5264 8.68068 24.513H27.3327C27.3567 24.513 27.374 24.501 27.398 24.4997H28.666V5.84635C28.666 4.37569 27.47 3.17969 25.9993 3.17969ZM25.9993 21.8464H7.33268V7.17969C7.33268 6.10502 8.06602 5.86235 8.66602 5.84635H17.9993V15.1797L20.666 13.8464L23.3327 15.1797V5.84635H25.9993V21.8464Z" fill="#1B4376"/>
</svg>
