<svg width="16" height="16" viewBox="0 0 16 16" fill="none" xmlns="http://www.w3.org/2000/svg">
<path d="M9.33398 4.66732L5.33398 8.00065L9.33398 11.334V4.66732Z" fill="black"/>
<path d="M7.99935 14.666C11.6753 14.666 14.666 11.6753 14.666 7.99935C14.666 4.32335 11.6753 1.33268 7.99935 1.33268C4.32335 1.33268 1.33268 4.32335 1.33268 7.99935C1.33268 11.6753 4.32335 14.666 7.99935 14.666ZM7.99935 2.66602C10.94 2.66602 13.3327 5.05868 13.3327 7.99935C13.3327 10.94 10.94 13.3327 7.99935 13.3327C5.05868 13.3327 2.66602 10.94 2.66602 7.99935C2.66602 5.05868 5.05868 2.66602 7.99935 2.66602Z" fill="black"/>
</svg>
