<svg width="24" height="24" viewBox="0 0 24 24" fill="none" xmlns="http://www.w3.org/2000/svg">
<path d="M5.96208 17.6745C7.00008 19.3315 7.00008 20.5675 7.00008 22.0005H9.00008C9.00008 20.4795 9.00008 18.7565 7.65708 16.6115L5.96208 17.6745ZM16.5041 3.38747C13.9771 1.91047 7.55008 0.926475 4.28108 4.30547C0.913082 7.78647 2.03208 13.3775 4.28208 15.6975C4.40008 15.8195 4.52608 15.9265 4.65108 16.0305C4.72308 16.0915 4.79708 16.1465 4.85608 16.2145L6.35008 14.8845C6.22015 14.7441 6.08011 14.6134 5.93108 14.4935C5.85908 14.4335 5.78508 14.3745 5.71708 14.3055C4.05708 12.5945 3.21108 8.28848 5.71808 5.69747C8.24308 3.08647 13.7861 4.11847 15.4951 5.11647C18.1861 6.68547 19.5921 9.42447 19.6041 9.44947L21.3931 8.55447C21.3281 8.41947 19.7251 5.26547 16.5041 3.38747Z" fill="#556EE6"/>
<path d="M9.33997 12.8223C8.30997 11.5623 7.55297 10.5053 7.94797 9.3163C8.21097 8.5313 8.76097 7.9913 9.58497 7.7123C10.809 7.3023 12.505 7.5523 13.625 8.3133L14.748 6.6593C13.1 5.5393 10.766 5.2023 8.94397 5.8183C7.53597 6.2943 6.50897 7.3133 6.05197 8.6843C5.27597 11.0123 6.85097 12.9383 7.79197 14.0893C7.94097 14.2723 8.08197 14.4433 8.20097 14.6013C11 18.3233 11 20.1093 11 22.0003H13C13 19.9643 13 17.6553 9.79897 13.3993C9.64958 13.2041 9.49655 13.0118 9.33997 12.8223ZM15.131 9.4783C16.966 11.2423 18.165 13.9253 19.02 18.1793L20.981 17.7843C20.042 13.1063 18.665 10.0993 16.518 8.0363L15.131 9.4783Z" fill="#556EE6"/>
<path d="M11.5564 9.16992L10.4414 10.8299C10.4684 10.8489 13.1524 12.7099 14.2424 16.5539L16.1664 16.0089C14.8674 11.4269 11.6904 9.25992 11.5564 9.16992ZM14.6884 18.4599C14.8984 19.6279 15.0004 20.7859 15.0004 22.0009H17.0004C17.0004 20.6659 16.8884 19.3929 16.6574 18.1059L14.6884 18.4599Z" fill="#556EE6"/>
</svg>
