<svg width="18" height="18" viewBox="0 0 18 18" fill="none" xmlns="http://www.w3.org/2000/svg">
<path d="M1.62375 14.6632C1.76325 14.8733 1.998 15 2.25 15H13.5C13.8 15 14.0715 14.8215 14.1893 14.5455L16.4393 9.2955C16.4886 9.18145 16.5087 9.05692 16.4978 8.93315C16.487 8.80938 16.4455 8.69025 16.3771 8.58652C16.3087 8.48278 16.2156 8.3977 16.1061 8.33895C15.9966 8.28021 15.8742 8.24964 15.75 8.25H15V5.25C15 4.42275 14.3273 3.75 13.5 3.75H8.925L7.212 2.40975C7.08025 2.30624 6.91755 2.24999 6.75 2.25H3C2.17275 2.25 1.5 2.92275 1.5 3.75V14.25H1.50525C1.50358 14.3964 1.54477 14.54 1.62375 14.6632ZM13.0057 13.5H3.38775L4.995 9.75H14.613L13.0057 13.5ZM13.5 5.25V8.25H4.5C4.2 8.25 3.9285 8.4285 3.81075 8.7045L3 10.5968V5.25H13.5Z" fill="#2A3043"/>
</svg>
