<svg width="33" height="33" viewBox="0 0 33 33" fill="none" xmlns="http://www.w3.org/2000/svg">
<path d="M25.6813 20.7167V11.162C25.6746 9.02068 24.2453 5.83268 20.3346 5.83268V3.16602L15.0013 7.16602L20.3346 11.166V8.49935C22.7733 8.49935 23.0026 10.5513 23.0146 11.166V20.7167C21.0946 21.2953 19.6813 23.0593 19.6813 25.166C19.6813 27.7393 21.7746 29.8327 24.348 29.8327C26.9213 29.8327 29.0146 27.7393 29.0146 25.166C29.0146 23.0593 27.6013 21.2953 25.6813 20.7167ZM24.348 27.166C23.2453 27.166 22.348 26.2687 22.348 25.166C22.348 24.0633 23.2453 23.166 24.348 23.166C25.4506 23.166 26.348 24.0633 26.348 25.166C26.348 26.2687 25.4506 27.166 24.348 27.166ZM13.0013 7.83268C13.0013 5.25935 10.908 3.16602 8.33464 3.16602C5.7613 3.16602 3.66797 5.25935 3.66797 7.83268C3.66797 9.93935 5.0813 11.7033 7.0013 12.282V20.7167C5.0813 21.2953 3.66797 23.0593 3.66797 25.166C3.66797 27.7393 5.7613 29.8327 8.33464 29.8327C10.908 29.8327 13.0013 27.7393 13.0013 25.166C13.0013 23.0593 11.588 21.2953 9.66797 20.7167V12.282C11.588 11.7033 13.0013 9.93935 13.0013 7.83268ZM6.33464 7.83268C6.33464 6.73002 7.23197 5.83268 8.33464 5.83268C9.4373 5.83268 10.3346 6.73002 10.3346 7.83268C10.3346 8.93535 9.4373 9.83268 8.33464 9.83268C7.23197 9.83268 6.33464 8.93535 6.33464 7.83268ZM10.3346 25.166C10.3346 26.2687 9.4373 27.166 8.33464 27.166C7.23197 27.166 6.33464 26.2687 6.33464 25.166C6.33464 24.0633 7.23197 23.166 8.33464 23.166C9.4373 23.166 10.3346 24.0633 10.3346 25.166Z" fill="#1B4376"/>
</svg>
