<svg width="45" height="44" viewBox="0 0 45 44" fill="none" xmlns="http://www.w3.org/2000/svg">
<path d="M6.00033 7.33333V16.5H9.66699V9.16667H17.0003V5.5H7.83366C7.34743 5.5 6.88111 5.69315 6.5373 6.03697C6.19348 6.38079 6.00033 6.8471 6.00033 7.33333ZM39.0003 16.5V7.33333C39.0003 6.8471 38.8072 6.38079 38.4634 6.03697C38.1195 5.69315 37.6532 5.5 37.167 5.5H28.0003V9.16667H35.3337V16.5H39.0003ZM35.3337 34.8333H28.0003V38.5H37.167C37.6532 38.5 38.1195 38.3068 38.4634 37.963C38.8072 37.6192 39.0003 37.1529 39.0003 36.6667V27.5H35.3337V34.8333ZM17.0003 38.5V34.8333H9.66699V27.5H6.00033V36.6667C6.00033 37.1529 6.19348 37.6192 6.5373 37.963C6.88111 38.3068 7.34743 38.5 7.83366 38.5H17.0003ZM4.16699 20.1667H40.8337V23.8333H4.16699V20.1667Z" fill="#6A7187"/>
</svg>
