<svg width="26" height="26" viewBox="0 0 26 26" fill="none" xmlns="http://www.w3.org/2000/svg">
<path d="M13 9.75C12.1398 9.75568 11.3164 10.0999 10.7082 10.7082C10.0999 11.3164 9.75568 12.1398 9.75 13C9.75 14.7788 11.2212 16.25 13 16.25C14.7778 16.25 16.25 14.7788 16.25 13C16.25 11.2223 14.7778 9.75 13 9.75Z" fill="#556EE6"/>
<path d="M13.0002 5.41666C4.73115 5.41666 2.24598 12.5851 2.22323 12.6577L2.1084 13L2.22215 13.3423C2.24598 13.4149 4.73115 20.5833 13.0002 20.5833C21.2693 20.5833 23.7545 13.4149 23.7772 13.3423L23.8921 13L23.7783 12.6577C23.7545 12.5851 21.2693 5.41666 13.0002 5.41666ZM13.0002 18.4167C7.20332 18.4167 4.95756 14.2502 4.41373 13C4.95973 11.7455 7.20657 7.58332 13.0002 7.58332C18.7971 7.58332 21.0429 11.7498 21.5867 13C21.0407 14.2545 18.7939 18.4167 13.0002 18.4167Z" fill="#556EE6"/>
</svg>
