<svg width="33" height="33" viewBox="0 0 33 33" fill="none" xmlns="http://www.w3.org/2000/svg">
<path d="M27.166 16.5007C26.8455 16.5029 26.5279 16.563 26.2287 16.678L23.0313 14.0607C23.11 13.7753 23.166 13.4793 23.166 13.1673C23.166 11.3193 21.6807 9.83398 19.8327 9.83398C17.9847 9.83398 16.4993 11.3193 16.4993 13.1673C16.4993 13.6953 16.6327 14.1873 16.8487 14.63L12.97 19.214C12.8148 19.1849 12.6573 19.1693 12.4993 19.1673C12.2607 19.1673 12.0353 19.2073 11.8167 19.266L8.39935 15.8487C8.45935 15.6313 8.49935 15.406 8.49935 15.1673C8.49935 13.69 7.31002 12.5007 5.83268 12.5007C4.35535 12.5007 3.16602 13.69 3.16602 15.1673C3.16602 16.6447 4.35535 17.834 5.83268 17.834C6.07135 17.834 6.29668 17.794 6.51535 17.7353L9.93268 21.1527C9.86859 21.3742 9.83495 21.6034 9.83268 21.834C9.83268 23.3113 11.022 24.5007 12.4993 24.5007C13.9767 24.5007 15.166 23.3113 15.166 21.834C15.166 21.518 15.102 21.2207 15.002 20.9393L18.886 16.35C19.1887 16.438 19.502 16.5007 19.8327 16.5007C20.3589 16.4977 20.8768 16.3693 21.3433 16.126L24.542 18.7433C24.5169 18.8833 24.5027 19.0251 24.4993 19.1673C24.4993 20.6447 25.6887 21.834 27.166 21.834C28.6434 21.834 29.8327 20.6447 29.8327 19.1673C29.8327 17.69 28.6434 16.5007 27.166 16.5007Z" fill="#1B4376"/>
</svg>
