<svg width="32" height="33" viewBox="0 0 32 33" fill="none" xmlns="http://www.w3.org/2000/svg">
<path d="M15.9993 3.16602C8.64735 3.16602 2.66602 9.14735 2.66602 16.4993C2.66602 23.8513 8.64735 29.8327 15.9993 29.8327C23.3513 29.8327 29.3327 23.8513 29.3327 16.4993C29.3327 9.14735 23.3513 3.16602 15.9993 3.16602ZM15.9993 27.166C10.118 27.166 5.33268 22.3807 5.33268 16.4993C5.33268 10.618 10.118 5.83268 15.9993 5.83268C21.8807 5.83268 26.666 10.618 26.666 16.4993C26.666 22.3807 21.8807 27.166 15.9993 27.166Z" fill="#1B4376"/>
<path d="M17.3327 9.83398H14.666V17.0527L19.0567 21.4433L20.942 19.558L17.3327 15.9487V9.83398Z" fill="#1B4376"/>
</svg>
