<svg width="26" height="26" viewBox="0 0 26 26" fill="none" xmlns="http://www.w3.org/2000/svg">
<path d="M5.41667 21.6667C5.41667 22.2413 5.64494 22.7924 6.05127 23.1987C6.4576 23.6051 7.0087 23.8333 7.58333 23.8333H18.4167C18.9913 23.8333 19.5424 23.6051 19.9487 23.1987C20.3551 22.7924 20.5833 22.2413 20.5833 21.6667V8.66666H22.75V6.49999H18.4167V4.33332C18.4167 3.75869 18.1884 3.20759 17.7821 2.80126C17.3757 2.39493 16.8246 2.16666 16.25 2.16666H9.75C9.17536 2.16666 8.62426 2.39493 8.21794 2.80126C7.81161 3.20759 7.58333 3.75869 7.58333 4.33332V6.49999H3.25V8.66666H5.41667V21.6667ZM9.75 4.33332H16.25V6.49999H9.75V4.33332ZM8.66667 8.66666H18.4167V21.6667H7.58333V8.66666H8.66667Z" fill="#F46A6A"/>
<path d="M9.75 10.8333H11.9167V19.5H9.75V10.8333ZM14.0833 10.8333H16.25V19.5H14.0833V10.8333Z" fill="#F46A6A"/>
</svg>
