<svg width="44" height="44" viewBox="0 0 44 44" fill="none" xmlns="http://www.w3.org/2000/svg">
<path d="M21.9993 18.3333C24.1095 18.3333 25.666 16.7787 25.666 14.6667C25.666 12.5547 24.1095 11 21.9993 11C19.891 11 18.3327 12.5547 18.3327 14.6667C18.3327 16.7787 19.891 18.3333 21.9993 18.3333ZM21.9993 20.1667C17.9495 20.1667 14.666 23.122 14.666 26.7667V27.4743H29.3327V26.7667C29.3327 23.122 26.0492 20.1667 21.9993 20.1667Z" fill="#6A7187"/>
<path d="M34.8333 3.66602H9.16667C7.1445 3.66602 5.5 5.31052 5.5 7.33268V31.166C5.5 33.1882 7.1445 34.8327 9.16667 34.8327H16.5L22 40.3327L27.5 34.8327H34.8333C36.8555 34.8327 38.5 33.1882 38.5 31.166V7.33268C38.5 5.31052 36.8555 3.66602 34.8333 3.66602ZM25.6667 31.166L22 34.8327L18.3333 31.166H9.16667V7.33268H34.8333L34.837 31.166H25.6667Z" fill="#6A7187"/>
</svg>
