<svg width="65" height="64" viewBox="0 0 65 64" fill="none" xmlns="http://www.w3.org/2000/svg">
<path d="M32.4987 5.33398C17.7947 5.33398 5.83203 17.2967 5.83203 32.0007C5.83203 46.7047 17.7947 58.6673 32.4987 58.6673C47.2027 58.6673 59.1654 46.7047 59.1654 32.0007C59.1654 17.2967 47.2027 5.33398 32.4987 5.33398ZM32.4987 53.334C20.736 53.334 11.1654 43.7633 11.1654 32.0007C11.1654 20.238 20.736 10.6673 32.4987 10.6673C44.2614 10.6673 53.832 20.238 53.832 32.0007C53.832 43.7633 44.2614 53.334 32.4987 53.334Z" fill="#556EE6"/>
<path d="M27.1655 36.2326L21.0349 30.1126L17.2695 33.8886L27.1709 43.7686L45.0535 25.8859L41.2829 22.1152L27.1655 36.2326Z" fill="#556EE6"/>
</svg>
