<svg width="24" height="24" viewBox="0 0 24 24" fill="none" xmlns="http://www.w3.org/2000/svg">
<path d="M20.001 0C17.7912 0 15.9999 1.791 15.9999 3.9999C15.9999 5.8611 17.2773 7.4121 18.9999 7.8582V9.9999C18.9998 10.2651 18.8944 10.5193 18.7069 10.7068C18.5194 10.8943 18.2652 10.9997 18 10.9998H8.0001C6.8691 10.9998 5.838 11.3895 5.0001 12.0234V7.8594C6.7227 7.4121 8.0001 5.8614 8.0001 4.0002C8.0001 1.791 6.2091 0 3.9999 0C1.7907 0 0 1.791 0 3.9999C0 5.8611 1.2774 7.4121 3 7.8573V16.1424C1.2774 16.5876 0 18.1383 0 19.9998C0 22.209 1.791 24 3.9999 24C6.2088 24 7.9998 22.209 7.9998 20.0001C7.9998 18.1386 6.7224 16.5879 4.9998 16.1427V15.9999C4.9998 14.343 6.3435 12.9999 7.9998 12.9999H18C19.6563 12.9999 21 11.6571 21 9.9999V7.8588C22.7217 7.4124 24 5.8617 24 3.9999C24 1.791 22.209 0 20.001 0ZM6 20.0001C6 21.1056 5.1045 21.9999 3.9999 21.9999C2.8953 21.9999 1.9998 21.1056 1.9998 20.0001C1.9998 19.4696 2.21052 18.9609 2.58562 18.5858C2.96071 18.2107 3.46944 18 3.9999 18C4.53036 18 5.03909 18.2107 5.41418 18.5858C5.78928 18.9609 6 19.4696 6 20.0001ZM3.9999 6C3.46944 6 2.96071 5.78928 2.58562 5.41418C2.21052 5.03909 1.9998 4.53036 1.9998 3.9999C1.9998 3.46944 2.21052 2.96071 2.58562 2.58562C2.96071 2.21052 3.46944 1.9998 3.9999 1.9998C4.53036 1.9998 5.03909 2.21052 5.41418 2.58562C5.78928 2.96071 6 3.46944 6 3.9999C6 4.53036 5.78928 5.03909 5.41418 5.41418C5.03909 5.78928 4.53036 6 3.9999 6ZM20.0001 6C19.4696 6 18.9609 5.78928 18.5858 5.41418C18.2107 5.03909 18 4.53036 18 3.9999C18 3.46944 18.2107 2.96071 18.5858 2.58562C18.9609 2.21052 19.4696 1.9998 20.0001 1.9998C20.5306 1.9998 21.0393 2.21052 21.4144 2.58562C21.7895 2.96071 22.0002 3.46944 22.0002 3.9999C22.0002 4.53036 21.7895 5.03909 21.4144 5.41418C21.0393 5.78928 20.5306 6 20.0001 6Z" fill="#3D628D"/>
</svg>
