<svg width="25" height="24" viewBox="0 0 25 24" fill="none" xmlns="http://www.w3.org/2000/svg">
<path d="M21.2667 2.22255V22.6333C21.2667 22.7305 21.2246 22.8238 21.1496 22.8926C21.0746 22.9613 20.9728 23 20.8667 23H4.06673C3.96065 23 3.8589 22.9613 3.78389 22.8926C3.70888 22.8238 3.66673 22.7305 3.66673 22.6333V2.22255C3.66673 1.4614 4.60623 1.01746 5.28193 1.4603C5.41752 1.5492 5.58005 1.597 5.74676 1.597C5.91346 1.597 6.07599 1.5492 6.21158 1.4603L6.49658 1.27348C6.76792 1.0956 7.09315 0.999969 7.42673 0.999969C7.76032 0.999969 8.08555 1.0956 8.35688 1.27348L8.64193 1.4603C8.77752 1.5492 8.94005 1.597 9.10676 1.597C9.27346 1.597 9.436 1.5492 9.57158 1.4603L9.85658 1.27348C10.1279 1.0956 10.4531 0.999969 10.7867 0.999969C11.1203 0.999969 11.4455 1.0956 11.7169 1.27348L12.0019 1.46034C12.1375 1.54922 12.3 1.597 12.4668 1.597C12.6335 1.597 12.796 1.54922 12.9316 1.46034L13.2166 1.27353C13.4879 1.09565 13.8132 1.00002 14.1467 1.00002C14.4803 1.00002 14.8055 1.09565 15.0769 1.27353L15.3619 1.46039C15.4975 1.54926 15.66 1.59704 15.8267 1.59704C15.9934 1.59704 16.1559 1.54926 16.2915 1.46039C16.605 1.25492 16.801 1.10032 17.1929 1.0285C17.2966 1.01024 17.4039 1.03029 17.4916 1.08428C17.5792 1.13826 17.6399 1.2218 17.6606 1.31669C17.6813 1.41158 17.6603 1.51012 17.602 1.59084C17.5438 1.67155 17.4531 1.72789 17.3498 1.74758C17.1434 1.78539 17.0561 1.86074 16.7569 2.05691C16.4855 2.23477 16.1603 2.3304 15.8267 2.3304C15.4932 2.3304 15.1679 2.23477 14.8966 2.05691L14.6116 1.87009C14.476 1.78119 14.3135 1.7334 14.1468 1.7334C13.9801 1.7334 13.8175 1.78119 13.6819 1.87009L13.3969 2.05691C13.1256 2.23477 12.8004 2.3304 12.4668 2.3304C12.1332 2.3304 11.808 2.23477 11.5366 2.05691L11.2516 1.87005C11.116 1.78116 10.9535 1.73337 10.7868 1.73337C10.6201 1.73337 10.4575 1.78116 10.3219 1.87005L10.0369 2.05686C9.7656 2.23475 9.44037 2.33039 9.10678 2.33039C8.7732 2.33039 8.44797 2.23475 8.17663 2.05686L7.89158 1.87005C7.75599 1.78115 7.59346 1.73335 7.42676 1.73335C7.26005 1.73335 7.09752 1.78115 6.96193 1.87005L6.67693 2.05686C6.4056 2.23475 6.08037 2.33039 5.74678 2.33039C5.4132 2.33039 5.08797 2.23475 4.81663 2.05686C4.66988 1.96066 4.46673 2.05682 4.46673 2.22255V22.2666H20.4667C20.4667 0.819915 20.5254 2.12584 20.3464 2.04146C20.3104 2.02446 20.2159 1.99192 20.1169 2.05686C20.0742 2.08487 20.0258 2.10489 19.9747 2.11577C19.9235 2.12666 19.8705 2.1282 19.8186 2.1203C19.7668 2.11241 19.7172 2.09523 19.6726 2.06976C19.6281 2.04429 19.5894 2.01101 19.5588 1.97184C19.2158 1.53198 20.0465 1.07553 20.7123 1.38935C20.8796 1.46779 21.02 1.58715 21.1178 1.73421C21.2157 1.88127 21.2672 2.05029 21.2667 2.22255ZM14.0667 10.8541C14.1728 10.8541 14.2746 10.8155 14.3496 10.7468C14.4246 10.678 14.4667 10.5847 14.4667 10.4875V8.37915C14.4667 8.28191 14.4246 8.18864 14.3496 8.11988C14.2746 8.05112 14.1728 8.01249 14.0667 8.01249H11.5667C11.4606 8.01249 11.3589 8.05112 11.2839 8.11988C11.2089 8.18864 11.1667 8.28191 11.1667 8.37915C11.1667 8.4764 11.2089 8.56966 11.2839 8.63842C11.3589 8.70719 11.4606 8.74582 11.5667 8.74582H13.6667V10.1208H11.5667C11.4606 10.1208 11.3589 10.1594 11.2839 10.2282C11.2089 10.297 11.1667 10.3902 11.1667 10.4875V12.5958C11.1667 12.6931 11.2089 12.7863 11.2839 12.8551C11.3589 12.9238 11.4606 12.9625 11.5667 12.9625H14.0667C14.1728 12.9625 14.2746 12.9238 14.3496 12.8551C14.4246 12.7863 14.4667 12.6931 14.4667 12.5958C14.4667 12.4986 14.4246 12.4053 14.3496 12.3365C14.2746 12.2678 14.1728 12.2291 14.0667 12.2291H11.9667V10.8541H14.0667ZM6.46673 8.37915C6.46673 8.28191 6.50888 8.18864 6.58389 8.11988C6.65891 8.05112 6.76065 8.01249 6.86673 8.01249H9.36673C9.47282 8.01249 9.57456 8.05112 9.64958 8.11988C9.72459 8.18864 9.76673 8.28191 9.76673 8.37915V12.5958C9.76673 12.6931 9.72459 12.7863 9.64958 12.8551C9.57456 12.9238 9.47282 12.9625 9.36673 12.9625H6.86673C6.76065 12.9625 6.65891 12.9238 6.58389 12.8551C6.50888 12.7863 6.46673 12.6931 6.46673 12.5958V8.37915ZM7.26673 12.2291H8.96673V8.74582H7.26673V12.2291ZM15.623 5.62916C15.623 5.53191 15.5808 5.43865 15.5058 5.36988C15.4308 5.30112 15.3291 5.26249 15.223 5.26249H6.86673C6.76065 5.26249 6.65891 5.30112 6.58389 5.36988C6.50888 5.43865 6.46673 5.53191 6.46673 5.62916C6.46673 5.7264 6.50888 5.81966 6.58389 5.88843C6.65891 5.95719 6.76065 5.99582 6.86673 5.99582H15.223C15.3291 5.99582 15.4308 5.95719 15.5058 5.88843C15.5808 5.81966 15.623 5.7264 15.623 5.62916ZM16.8667 5.62916C16.8667 5.7264 16.9089 5.81966 16.9839 5.88843C17.0589 5.95719 17.1606 5.99582 17.2667 5.99582H18.0667C18.1728 5.99582 18.2746 5.95719 18.3496 5.88843C18.4246 5.81966 18.4667 5.7264 18.4667 5.62916C18.4667 5.53191 18.4246 5.43865 18.3496 5.36988C18.2746 5.30112 18.1728 5.26249 18.0667 5.26249H17.2667C17.1606 5.26249 17.0589 5.30112 16.9839 5.36988C16.9089 5.43865 16.8667 5.53191 16.8667 5.62916ZM6.86673 15.9416H10.5167C10.6228 15.9416 10.7246 15.903 10.7996 15.8342C10.8746 15.7655 10.9167 15.6722 10.9167 15.575C10.9167 15.4777 10.8746 15.3845 10.7996 15.3157C10.7246 15.2469 10.6228 15.2083 10.5167 15.2083H6.86673C6.76065 15.2083 6.65891 15.2469 6.58389 15.3157C6.50888 15.3845 6.46673 15.4777 6.46673 15.575C6.46673 15.6722 6.50888 15.7655 6.58389 15.8342C6.65891 15.903 6.76065 15.9416 6.86673 15.9416ZM6.86673 19.2416H15.5167C15.6228 19.2416 15.7246 19.203 15.7996 19.1342C15.8746 19.0655 15.9167 18.9722 15.9167 18.875C15.9167 18.7777 15.8746 18.6845 15.7996 18.6157C15.7246 18.5469 15.6228 18.5083 15.5167 18.5083H6.86673C6.76065 18.5083 6.65891 18.5469 6.58389 18.6157C6.50888 18.6845 6.46673 18.7777 6.46673 18.875C6.46673 18.9722 6.50888 19.0655 6.58389 19.1342C6.65891 19.203 6.76065 19.2416 6.86673 19.2416Z" fill="#3D628D" stroke="#3D628D"/>
</svg>
