<svg width="25" height="24" viewBox="0 0 25 24" fill="none" xmlns="http://www.w3.org/2000/svg">
<g clip-path="url(#clip0_6_1050)">
<path d="M22.8334 6H1.83337C1.43555 6 1.05402 6.15804 0.772714 6.43934C0.491409 6.72064 0.333374 7.10218 0.333374 7.5L0.333374 17.5C0.333374 17.8978 0.491409 18.2794 0.772714 18.5607C1.05402 18.842 1.43555 19 1.83337 19H22.8334C23.2312 19 23.6127 18.842 23.894 18.5607C24.1753 18.2794 24.3334 17.8978 24.3334 17.5V7.5C24.3334 7.10218 24.1753 6.72064 23.894 6.43934C23.6127 6.15804 23.2312 6 22.8334 6ZM23.3334 17.5C23.3334 17.6326 23.2807 17.7598 23.1869 17.8536C23.0932 17.9473 22.966 18 22.8334 18H1.83337C1.70077 18 1.57359 17.9473 1.47982 17.8536C1.38605 17.7598 1.33337 17.6326 1.33337 17.5V7.5C1.33337 7.36739 1.38605 7.24021 1.47982 7.14645C1.57359 7.05268 1.70077 7 1.83337 7H22.8334C22.966 7 23.0932 7.05268 23.1869 7.14645C23.2807 7.24021 23.3334 7.36739 23.3334 7.5V17.5Z" fill="#3D628D" stroke="#3D628D"/>
<path d="M5.33337 9.5H4.33337C3.93555 9.5 3.55402 9.65804 3.27271 9.93934C2.99141 10.2206 2.83337 10.6022 2.83337 11V13C2.83337 13.3978 2.99141 13.7794 3.27271 14.0607C3.55402 14.342 3.93555 14.5 4.33337 14.5H5.33337C5.7312 14.5 6.11273 14.342 6.39403 14.0607C6.67534 13.7794 6.83337 13.3978 6.83337 13V11C6.83337 10.6022 6.67534 10.2206 6.39403 9.93934C6.11273 9.65804 5.7312 9.5 5.33337 9.5ZM4.33337 10.5H5.33337L3.83337 12.5V11C3.83337 10.8674 3.88605 10.7402 3.97982 10.6464C4.07359 10.5527 4.20077 10.5 4.33337 10.5ZM5.33337 13.5H4.33337L5.83337 11.5V13C5.83337 13.1326 5.7807 13.2598 5.68693 13.3536C5.59316 13.4473 5.46598 13.5 5.33337 13.5ZM15.3334 9.5H14.3334C13.9355 9.5 13.554 9.65804 13.2727 9.93934C12.9914 10.2206 12.8334 10.6022 12.8334 11V13C12.8334 13.3978 12.9914 13.7794 13.2727 14.0607C13.554 14.342 13.9355 14.5 14.3334 14.5H15.3334C15.7312 14.5 16.1127 14.342 16.394 14.0607C16.6753 13.7794 16.8334 13.3978 16.8334 13V11C16.8334 10.6022 16.6753 10.2206 16.394 9.93934C16.1127 9.65804 15.7312 9.5 15.3334 9.5ZM14.3334 10.5H15.3334L13.8334 12.5V11C13.8334 10.8674 13.8861 10.7402 13.9798 10.6464C14.0736 10.5527 14.2008 10.5 14.3334 10.5ZM15.3334 13.5H14.3334L15.8334 11.5V13C15.8334 13.1326 15.7807 13.2598 15.6869 13.3536C15.5932 13.4473 15.466 13.5 15.3334 13.5ZM9.33337 12.5H10.8334V14C10.8334 14.1326 10.8861 14.2598 10.9798 14.3536C11.0736 14.4473 11.2008 14.5 11.3334 14.5C11.466 14.5 11.5932 14.4473 11.6869 14.3536C11.7807 14.2598 11.8334 14.1326 11.8334 14V10C11.8334 9.86739 11.7807 9.74021 11.6869 9.64645C11.5932 9.55268 11.466 9.5 11.3334 9.5C11.2008 9.5 11.0736 9.55268 10.9798 9.64645C10.8861 9.74021 10.8334 9.86739 10.8334 10V11.5H9.33337C9.20077 11.5 9.07359 11.4473 8.97982 11.3536C8.88605 11.2598 8.83337 11.1326 8.83337 11V10C8.83337 9.86739 8.7807 9.74021 8.68693 9.64645C8.59316 9.55268 8.46598 9.5 8.33337 9.5C8.20077 9.5 8.07359 9.55268 7.97982 9.64645C7.88605 9.74021 7.83337 9.86739 7.83337 10V11C7.83337 11.3978 7.99141 11.7794 8.27271 12.0607C8.55402 12.342 8.93555 12.5 9.33337 12.5ZM21.3334 10.5C21.466 10.5 21.5932 10.4473 21.6869 10.3536C21.7807 10.2598 21.8334 10.1326 21.8334 10C21.8334 9.86739 21.7807 9.74021 21.6869 9.64645C21.5932 9.55268 21.466 9.5 21.3334 9.5H18.8334C18.5682 9.5 18.3138 9.60536 18.1263 9.79289C17.9387 9.98043 17.8334 10.2348 17.8334 10.5V11.5C17.8334 11.7652 17.9387 12.0196 18.1263 12.2071C18.3138 12.3946 18.5682 12.5 18.8334 12.5H20.8334V13.5H18.3334C18.2008 13.5 18.0736 13.5527 17.9798 13.6464C17.8861 13.7402 17.8334 13.8674 17.8334 14C17.8334 14.1326 17.8861 14.2598 17.9798 14.3536C18.0736 14.4473 18.2008 14.5 18.3334 14.5H20.8334C21.0986 14.5 21.3529 14.3946 21.5405 14.2071C21.728 14.0196 21.8334 13.7652 21.8334 13.5V12.5C21.8334 12.2348 21.728 11.9804 21.5405 11.7929C21.3529 11.6054 21.0986 11.5 20.8334 11.5H18.8334V10.5H21.3334Z" fill="#3D628D"/>
</g>
<defs>
<clipPath id="clip0_6_1050">
<rect width="24" height="24" fill="white" transform="translate(0.333374)"/>
</clipPath>
</defs>
</svg>
