<svg width="24" height="24" viewBox="0 0 24 24" fill="none" xmlns="http://www.w3.org/2000/svg">
<g clip-path="url(#clip0_6_621)">
<path d="M1.63636 15.8607V19.908C1.63636 20.808 2.37273 21.5444 3.27273 21.5444C4.17273 21.5444 4.90909 20.808 4.90909 19.908V16.0898C7.87636 16.0898 10.7127 17.3553 12.6982 19.5589L13.9855 20.988C14.9673 22.1226 16.9418 21.3753 16.9091 19.8644V4.67348C16.9364 3.16802 14.9727 2.40984 13.9855 3.54984L12.6982 4.97893C11.7158 6.07157 10.5148 6.94552 9.17294 7.5441C7.83109 8.14267 6.3784 8.45249 4.90909 8.45348H2.72727C1.22182 8.45348 0 9.67529 0 11.1807V13.3626C0 14.4807 0.676364 15.4353 1.63636 15.8607ZM3.81818 19.908C3.81273 20.6226 2.73273 20.6226 2.72727 19.908V16.0898H3.81818V19.908ZM13.5055 5.71529L14.7927 4.2862C15.1309 3.88802 15.8345 4.1553 15.8127 4.67893V19.8698C15.8291 20.3935 15.1309 20.6607 14.7873 20.2626L13.5 18.8335C12.4759 17.6979 11.2373 16.776 9.85567 16.1207C8.47401 15.4655 6.97645 15.0898 5.44909 15.0153V9.53348C8.53091 9.3862 11.4382 8.01166 13.5055 5.71529ZM1.09091 11.1807C1.09091 10.2807 1.82727 9.54439 2.72727 9.54439H4.36364V14.9989H2.72727C1.82727 14.9989 1.09091 14.2626 1.09091 13.3626V11.1807ZM19.6364 12.2717C19.6364 12.5717 19.8818 12.8171 20.1818 12.8171H23.4545C23.7545 12.8171 24 12.5717 24 12.2717C24 11.9717 23.7545 11.7262 23.4545 11.7262H20.1818C19.8818 11.7262 19.6364 11.9717 19.6364 12.2717ZM20.8855 18.6589C21.3927 19.1607 22.1618 18.3917 21.6545 17.8898L20.0182 16.2535C19.9677 16.203 19.9077 16.1629 19.8418 16.1356C19.7758 16.1083 19.7051 16.0942 19.6336 16.0942C19.5622 16.0942 19.4915 16.1083 19.4255 16.1356C19.3595 16.1629 19.2996 16.203 19.2491 16.2535C19.1986 16.304 19.1585 16.3639 19.1312 16.4299C19.1039 16.4959 19.0898 16.5666 19.0898 16.638C19.0898 16.7094 19.1039 16.7802 19.1312 16.8461C19.1585 16.9121 19.1986 16.9721 19.2491 17.0226L20.8855 18.6589ZM20.8855 5.88439C21.3927 5.38257 22.1618 6.15166 21.6545 6.65348L20.0182 8.28984C19.9677 8.34034 19.9077 8.3804 19.8418 8.40773C19.7758 8.43506 19.7051 8.44912 19.6336 8.44912C19.5622 8.44912 19.4915 8.43506 19.4255 8.40773C19.3595 8.3804 19.2996 8.34034 19.2491 8.28984C19.1986 8.23934 19.1585 8.17939 19.1312 8.11341C19.1039 8.04743 19.0898 7.97671 19.0898 7.90529C19.0898 7.83388 19.1039 7.76316 19.1312 7.69718C19.1585 7.6312 19.1986 7.57125 19.2491 7.52075L20.8855 5.88439Z" fill="#3D628D" stroke="#3D628D"/>
</g>
<defs>
<clipPath id="clip0_6_621">
<rect width="24" height="24" fill="white"/>
</clipPath>
</defs>
</svg>
