<svg width="24" height="24" viewBox="0 0 24 24" fill="none" xmlns="http://www.w3.org/2000/svg">
<g clip-path="url(#clip0_6_677)">
<path d="M21.3916 12.9945L21.6849 12.7009H22.8002C23.1885 12.7009 23.5033 12.3862 23.5033 11.9978C23.5033 11.6095 23.1885 11.2945 22.8002 11.2945H21.3935C21.2071 11.2946 21.0283 11.3687 20.8964 11.5005L20.1797 12.217L18.192 8.2414C17.8323 7.52201 17.1092 7.0752 16.3051 7.0752H8.19822C7.39403 7.0752 6.67094 7.52201 6.31117 8.24144L4.32334 12.217L3.60686 11.5005C3.47502 11.3687 3.29621 11.2946 3.10975 11.2945H1.70312C1.31477 11.2945 1 11.6095 1 11.9978C1 12.3862 1.31477 12.7009 1.70312 12.7009H2.81842L3.11177 12.9945C1.87009 13.5376 1 14.7771 1 16.2168V19.0362C1 19.362 1.22359 19.6451 1.54033 19.7205C1.83189 19.7899 2.12022 19.8563 2.40644 19.9206V21.8899C2.40644 23.0532 3.35289 23.9996 4.51619 23.9996H5.92262C7.08587 23.9996 8.03233 23.0532 8.03233 21.8899V20.8806C9.46169 21.0366 10.8567 21.1148 12.2516 21.1148C13.6467 21.1148 15.0416 21.0366 16.4711 20.8806V21.8899C16.4711 23.0532 17.4174 23.9996 18.5807 23.9996H19.9871C21.1506 23.9996 22.0968 23.0532 22.0968 21.8899V19.9206C22.3831 19.8564 22.9681 19.7192 22.9706 19.7186C23.0596 19.6963 23.5033 19.5564 23.5033 18.9848V16.2168C23.5033 14.7772 22.6332 13.5376 21.3916 12.9945ZM7.5693 8.87041C7.62733 8.75331 7.71701 8.65482 7.82817 8.5861C7.93933 8.51738 8.06753 8.48119 8.19822 8.48163H16.3051C16.5731 8.48163 16.8141 8.63051 16.934 8.87037L18.8493 12.7009H5.65403L7.5693 8.87041ZM6.6257 21.8899C6.6257 22.2777 6.31023 22.5932 5.92258 22.5932H4.51623C4.12839 22.5932 3.81292 22.2777 3.81292 21.8899V20.2194C4.77442 20.4117 5.70916 20.573 6.6258 20.7032L6.6257 21.8899ZM20.6904 21.8899C20.6904 22.2777 20.3749 22.5932 19.9871 22.5932H18.5807C18.1929 22.5932 17.8774 22.2777 17.8774 21.8899V20.7032C18.7942 20.573 19.729 20.4117 20.6904 20.2195V21.8899ZM22.0968 18.4785C14.9748 20.1129 9.52848 20.1129 2.40644 18.4785V16.2168C2.40644 15.0536 3.3527 14.1076 4.51619 14.1076H19.9893C21.1517 14.1086 22.0968 15.0544 22.0968 16.2168V18.4785Z" fill="#3D628D" stroke="#3D628D" stroke-width="0.5"/>
<path d="M7.4994 16.2385L4.68634 15.5352C4.30951 15.4411 3.92776 15.6702 3.83364 16.047C3.73951 16.4236 3.96859 16.8056 4.34523 16.8997L7.15829 17.603C7.53531 17.6971 7.91687 17.4679 8.011 17.0912C8.10512 16.7146 7.87604 16.3327 7.4994 16.2385ZM19.8164 15.5352L17.0035 16.2385C16.6267 16.3327 16.3976 16.7144 16.4917 17.0912C16.586 17.4681 16.9678 17.6971 17.3445 17.603L20.1575 16.8997C20.5341 16.8056 20.7634 16.4236 20.6691 16.047C20.5748 15.6701 20.1928 15.4411 19.8164 15.5352ZM7.7761 3.25655C10.2438 0.788812 14.2589 0.788812 16.7267 3.25655C17.0013 3.53119 17.4467 3.53119 17.7213 3.25655C17.9959 2.98186 17.9959 2.53673 17.7213 2.26209C14.705 -0.754031 9.79754 -0.754031 6.78146 2.26209C6.50678 2.53678 6.50678 2.98186 6.78146 3.25655C7.05615 3.53123 7.50146 3.53119 7.7761 3.25655Z" fill="#3D628D" stroke="#3D628D" stroke-width="0.5"/>
<path d="M8.77043 4.25094C8.49579 4.52544 8.49579 4.97075 8.77043 5.24539C9.04507 5.52004 9.49043 5.52008 9.76489 5.24539C10.4279 4.58258 11.3108 4.21743 12.2513 4.21743C13.1917 4.21743 14.0747 4.58258 14.7375 5.24539C15.0122 5.52008 15.4575 5.52008 15.7321 5.24539C16.0068 4.97071 16.0068 4.52539 15.7321 4.25094C14.8036 3.32225 13.5674 2.81104 12.2513 2.81104C10.9351 2.81104 9.69893 3.32225 8.77043 4.25094Z" fill="#3D628D" stroke="#3D628D" stroke-width="0.5"/>
</g>
<defs>
<clipPath id="clip0_6_677">
<rect width="24" height="24" fill="white"/>
</clipPath>
</defs>
</svg>
