<svg width="25" height="24" viewBox="0 0 25 24" fill="none" xmlns="http://www.w3.org/2000/svg">
<g clip-path="url(#clip0_6_648)">
<path d="M22.6666 12C22.6666 11.823 22.6489 11.6514 22.6402 11.4777L24.6667 10.6359L24.2758 8.66997L22.0846 8.66577C21.9678 8.33649 21.8342 8.01346 21.6841 7.69797L23.2297 6.14697L22.1185 4.48107L20.0893 5.31597C19.8562 5.05652 19.6094 4.80967 19.3501 4.57647L20.1868 2.54907L18.5209 1.43607L16.969 2.98257C16.6532 2.83194 16.3299 2.69776 16.0003 2.58057L15.9973 0.38997L14.0323 0.000269604L13.1896 2.02557C13.0147 2.01687 12.8428 1.99917 12.6661 1.99917C12.4903 1.99917 12.3175 2.01687 12.1438 2.02557L11.3026 -3.05176e-05L9.33729 0.39057L9.33249 2.58117C9.00129 2.69847 8.67909 2.83317 8.36469 2.98257L6.81369 1.43577L5.14779 2.54907L5.98269 4.57617C5.72352 4.80999 5.47669 5.05712 5.24319 5.31657L3.21609 4.47957L2.10279 6.14577L3.64899 7.69737C3.49843 8.01307 3.36445 8.33641 3.24759 8.66607L1.05729 8.66817L0.666987 10.6341L2.69229 11.478C2.68359 11.6517 2.66589 11.8233 2.66589 12.0003C2.66589 12.1761 2.68359 12.3492 2.69229 12.5226L0.666687 13.3641L1.05819 15.33L3.24819 15.333C3.36579 15.6651 3.50019 15.9876 3.65049 16.302L2.10279 17.8524L3.21639 19.5195L5.24409 18.6834C5.47721 18.9429 5.72406 19.1897 5.98359 19.4229L5.14689 21.45L6.81309 22.5633L8.36469 21.0165C8.67909 21.1671 9.00159 21.3006 9.33309 21.4191L9.33579 23.6082L11.3005 24L12.1444 21.9732C12.3181 21.9819 12.4909 21.9996 12.6667 21.9996C12.8425 21.9996 13.0144 21.9819 13.189 21.9732L14.0311 24L15.9967 23.6091L16.0009 21.4188C16.3305 21.3013 16.6538 21.1669 16.9696 21.0162L18.5194 22.5642L20.1865 21.4515L19.3507 19.4223C19.6102 19.1892 19.8569 18.9424 20.0899 18.6828L22.1173 19.5201L23.2303 17.8542L21.6838 16.302C21.8346 15.9864 21.9686 15.663 22.0852 15.3333L24.2755 15.3303L24.6661 13.365L22.6408 12.5211C22.6489 12.3486 22.6666 12.1764 22.6666 12ZM12.6667 19.9998C8.24799 19.9998 4.66659 16.4181 4.66659 11.9997C4.66659 7.58097 8.24799 3.99957 12.6667 3.99957C17.0851 3.99957 20.6668 7.58097 20.6668 11.9997C20.6668 16.4181 17.0851 19.9998 12.6667 19.9998Z" fill="#3D628D"/>
<path d="M12.6667 7.99969C10.4578 7.99969 8.66708 9.79099 8.66708 11.9999C8.66708 14.2091 10.4578 16.0001 12.6667 16.0001C14.8756 16.0001 16.6666 14.2088 16.6666 11.9999C16.6666 9.79069 14.8756 7.99969 12.6667 7.99969ZM12.6667 13.9997C12.404 13.9997 12.144 13.948 11.9013 13.8474C11.6587 13.7469 11.4382 13.5996 11.2525 13.4139C11.0668 13.2281 10.9195 13.0076 10.819 12.765C10.7185 12.5223 10.6668 12.2622 10.6669 11.9996C10.6669 11.6041 10.7843 11.2175 11.0041 10.8886C11.2238 10.5598 11.5362 10.3035 11.9016 10.1522C12.267 10.0009 12.6691 9.96136 13.057 10.0386C13.4449 10.1158 13.8012 10.3062 14.0809 10.5859C14.3605 10.8656 14.5509 11.2219 14.6281 11.6099C14.7052 11.9978 14.6656 12.3999 14.5142 12.7653C14.3629 13.1307 14.1065 13.443 13.7777 13.6627C13.4488 13.8824 13.0622 13.9997 12.6667 13.9997Z" fill="#3D628D"/>
<path d="M12.6667 6.74991C13.0809 6.74991 13.4167 6.41412 13.4167 5.99991C13.4167 5.58569 13.0809 5.24991 12.6667 5.24991C12.2525 5.24991 11.9167 5.58569 11.9167 5.99991C11.9167 6.41412 12.2525 6.74991 12.6667 6.74991Z" fill="#3D628D"/>
<path d="M12.6667 18.75C13.0809 18.75 13.4167 18.4142 13.4167 18C13.4167 17.5858 13.0809 17.25 12.6667 17.25C12.2525 17.25 11.9167 17.5858 11.9167 18C11.9167 18.4142 12.2525 18.75 12.6667 18.75Z" fill="#3D628D"/>
<path d="M6.66669 12.75C7.0809 12.75 7.41669 12.4142 7.41669 12C7.41669 11.5858 7.0809 11.25 6.66669 11.25C6.25247 11.25 5.91669 11.5858 5.91669 12C5.91669 12.4142 6.25247 12.75 6.66669 12.75Z" fill="#3D628D"/>
<path d="M18.6667 12.75C19.0809 12.75 19.4167 12.4142 19.4167 12C19.4167 11.5858 19.0809 11.25 18.6667 11.25C18.2525 11.25 17.9167 11.5858 17.9167 12C17.9167 12.4142 18.2525 12.75 18.6667 12.75Z" fill="#3D628D"/>
<path d="M9.1741 7.75681C9.17422 7.85536 9.15489 7.95296 9.11722 8.04403C9.07955 8.1351 9.02429 8.21783 8.95459 8.28751C8.88489 8.35718 8.80213 8.41241 8.71104 8.45004C8.61996 8.48767 8.52235 8.50696 8.4238 8.50681C8.32356 8.50964 8.22377 8.49235 8.13034 8.45595C8.0369 8.41955 7.95171 8.36478 7.87981 8.29488C7.80791 8.22499 7.75075 8.14138 7.71173 8.04901C7.6727 7.95664 7.65259 7.85738 7.65259 7.75711C7.65259 7.65683 7.6727 7.55757 7.71173 7.4652C7.75075 7.37283 7.80791 7.28923 7.87981 7.21933C7.95171 7.14943 8.0369 7.09466 8.13034 7.05826C8.22377 7.02186 8.32356 7.00457 8.4238 7.00741C8.62266 7.00733 8.81341 7.08623 8.95411 7.22676C9.09481 7.36729 9.17394 7.55795 9.1741 7.75681ZM17.6602 16.2435C17.6594 16.4423 17.58 16.6328 17.4393 16.7733C17.2987 16.9138 17.1081 16.993 16.9093 16.9935C16.7105 16.993 16.5201 16.9138 16.3795 16.7732C16.2389 16.6327 16.1596 16.4423 16.159 16.2435C16.1592 16.0445 16.2382 15.8536 16.3789 15.7128C16.5195 15.572 16.7103 15.4927 16.9093 15.4923C17.1083 15.4929 17.2991 15.5722 17.4398 15.713C17.5805 15.8537 17.6597 16.0445 17.6602 16.2435ZM8.4238 15.4929C8.8375 15.4929 9.1738 15.8286 9.1741 16.2435C9.1741 16.6572 8.8375 16.9935 8.4229 16.9935C8.22391 16.9934 8.03311 16.9142 7.89249 16.7734C7.75186 16.6326 7.67293 16.4417 7.67305 16.2428C7.67317 16.0438 7.75233 15.853 7.89312 15.7123C8.03392 15.5717 8.22481 15.4928 8.4238 15.4929ZM16.9093 7.00681C17.0078 7.00684 17.1054 7.02629 17.1964 7.06404C17.2874 7.10179 17.37 7.15709 17.4396 7.22679C17.5093 7.2965 17.5645 7.37923 17.6021 7.47028C17.6397 7.56132 17.6591 7.65889 17.659 7.75741C17.6588 7.95609 17.5799 8.14661 17.4396 8.28724C17.2992 8.42787 17.1089 8.50715 16.9102 8.50771C16.711 8.50771 16.52 8.4286 16.3791 8.28779C16.2383 8.14698 16.1591 7.95598 16.159 7.75681C16.1593 7.55794 16.2385 7.36731 16.3791 7.22672C16.5198 7.08613 16.7104 7.00704 16.9093 7.00681Z" fill="#3D628D"/>
</g>
<defs>
<clipPath id="clip0_6_648">
<rect width="24" height="24" fill="white" transform="translate(0.666687)"/>
</clipPath>
</defs>
</svg>
