<svg width="25" height="24" viewBox="0 0 25 24" fill="none" xmlns="http://www.w3.org/2000/svg">
<path d="M20.3334 0H4.9048C4.22282 0 3.56876 0.270918 3.08653 0.753154C2.60429 1.23539 2.33337 1.88944 2.33337 2.57143V23.1429C2.33337 23.3702 2.42368 23.5882 2.58443 23.7489C2.74517 23.9097 2.96319 24 3.19052 24C3.58463 23.9787 3.96623 23.8542 4.29715 23.6391C4.62807 23.424 4.89672 23.1258 5.07623 22.7743C5.35052 22.38 5.43623 22.2857 5.54766 22.2857C5.65909 22.2857 5.75337 22.38 6.02766 22.7743C6.20717 23.1258 6.47582 23.424 6.80674 23.6391C7.13766 23.8542 7.51926 23.9787 7.91337 24C8.30748 23.9787 8.68908 23.8542 9.02001 23.6391C9.35093 23.424 9.61958 23.1258 9.79909 22.7743C10.0734 22.38 10.1591 22.2857 10.2705 22.2857C10.3819 22.2857 10.4762 22.38 10.7419 22.7743C10.9214 23.124 11.1889 23.421 11.5181 23.6359C11.8472 23.8509 12.2267 23.9763 12.6191 24C13.0134 23.9795 13.3954 23.8554 13.7264 23.6402C14.0575 23.425 14.326 23.1263 14.5048 22.7743C14.7791 22.38 14.8648 22.2857 14.9762 22.2857C15.0877 22.2857 15.1734 22.38 15.4477 22.7743C15.6272 23.1276 15.897 23.427 16.2297 23.6423C16.5624 23.8576 16.9461 23.981 17.3419 24C17.7358 23.9778 18.1171 23.853 18.4479 23.638C18.7786 23.423 19.0475 23.1252 19.2277 22.7743C19.4934 22.38 19.5791 22.2857 19.6905 22.2857C19.8019 22.2857 19.8962 22.38 20.1619 22.7743C20.3415 23.1258 20.6101 23.424 20.941 23.6391C21.272 23.8542 21.6535 23.9787 22.0477 24C22.275 24 22.493 23.9097 22.6538 23.7489C22.8145 23.5882 22.9048 23.3702 22.9048 23.1429V2.57143C22.9048 1.88944 22.6339 1.23539 22.1516 0.753154C21.6694 0.270918 21.0154 0 20.3334 0ZM19.6905 20.5714C19.2975 20.5925 18.9169 20.717 18.5873 20.9322C18.2577 21.1474 17.9908 21.4458 17.8134 21.7971C17.5391 22.1914 17.4534 22.2857 17.3419 22.2857C17.2305 22.2857 17.1448 22.1914 16.8705 21.7971C16.691 21.4456 16.4224 21.1474 16.0914 20.9323C15.7605 20.7172 15.3789 20.5928 14.9848 20.5714C14.5909 20.5936 14.2097 20.7184 13.8789 20.9334C13.5481 21.1484 13.2793 21.4462 13.0991 21.7971C12.8334 22.1914 12.7391 22.2857 12.6277 22.2857C12.5162 22.2857 12.4305 22.1914 12.1562 21.7971C11.9774 21.4451 11.7089 21.1464 11.3779 20.9312C11.0468 20.716 10.6648 20.5919 10.2705 20.5714C9.87641 20.5928 9.49481 20.7172 9.16388 20.9323C8.83296 21.1474 8.56431 21.4456 8.3848 21.7971C8.11909 22.1914 8.0248 22.2857 7.91337 22.2857C7.80195 22.2857 7.70766 22.1914 7.44195 21.7971C7.26034 21.4455 6.99001 21.1474 6.65775 20.9325C6.32549 20.7175 5.94282 20.593 5.54766 20.5714C5.25884 20.5717 4.97382 20.6373 4.71402 20.7635C4.45422 20.8897 4.22639 21.0731 4.04766 21.3V2.57143C4.04766 2.3441 4.13797 2.12608 4.29871 1.96534C4.45946 1.80459 4.67747 1.71429 4.9048 1.71429H20.3334C20.5607 1.71429 20.7787 1.80459 20.9395 1.96534C21.1002 2.12608 21.1905 2.3441 21.1905 2.57143V21.2914C21.0113 21.0656 20.7832 20.8835 20.5234 20.7588C20.2635 20.6341 19.9787 20.57 19.6905 20.5714Z" fill="#3D628D"/>
<path d="M7.47622 6.85714H16.0477C16.275 6.85714 16.493 6.76683 16.6537 6.60609C16.8145 6.44534 16.9048 6.22732 16.9048 6C16.9048 5.77267 16.8145 5.55465 16.6537 5.3939C16.493 5.23316 16.275 5.14285 16.0477 5.14285H7.47622C7.24889 5.14285 7.03088 5.23316 6.87013 5.3939C6.70939 5.55465 6.61908 5.77267 6.61908 6C6.61908 6.22732 6.70939 6.44534 6.87013 6.60609C7.03088 6.76683 7.24889 6.85714 7.47622 6.85714ZM7.47622 10.2857H14.3334C14.5607 10.2857 14.7787 10.1954 14.9395 10.0347C15.1002 9.87391 15.1905 9.6559 15.1905 9.42857C15.1905 9.20124 15.1002 8.98322 14.9395 8.82248C14.7787 8.66173 14.5607 8.57142 14.3334 8.57142H7.47622C7.24889 8.57142 7.03088 8.66173 6.87013 8.82248C6.70939 8.98322 6.61908 9.20124 6.61908 9.42857C6.61908 9.6559 6.70939 9.87391 6.87013 10.0347C7.03088 10.1954 7.24889 10.2857 7.47622 10.2857ZM16.9048 12H7.47622C7.24889 12 7.03088 12.0903 6.87013 12.251C6.70939 12.4118 6.61908 12.6298 6.61908 12.8571C6.61908 13.0845 6.70939 13.3025 6.87013 13.4632C7.03088 13.624 7.24889 13.7143 7.47622 13.7143H16.9048C17.1321 13.7143 17.3501 13.624 17.5109 13.4632C17.6716 13.3025 17.7619 13.0845 17.7619 12.8571C17.7619 12.6298 17.6716 12.4118 17.5109 12.251C17.3501 12.0903 17.1321 12 16.9048 12ZM14.3334 15.4286H7.47622C7.24889 15.4286 7.03088 15.5189 6.87013 15.6796C6.70939 15.8404 6.61908 16.0584 6.61908 16.2857C6.61908 16.513 6.70939 16.7311 6.87013 16.8918C7.03088 17.0525 7.24889 17.1429 7.47622 17.1429H14.3334C14.5607 17.1429 14.7787 17.0525 14.9395 16.8918C15.1002 16.7311 15.1905 16.513 15.1905 16.2857C15.1905 16.0584 15.1002 15.8404 14.9395 15.6796C14.7787 15.5189 14.5607 15.4286 14.3334 15.4286Z" fill="#3D628D"/>
</svg>
