<svg width="24" height="24" viewBox="0 0 24 24" fill="none" xmlns="http://www.w3.org/2000/svg">
<g clip-path="url(#clip0_6_1060)">
<path d="M3.55237 4.4595H15.9526V5.25949H3.55237V4.4595ZM3.55237 8.68823H15.9526V9.48822H3.55237V8.68823ZM3.55237 12.9166H13.851V13.7165H3.55237V12.9166ZM3.55237 17.1457H8.38709V17.9457H3.55237V17.1457Z" fill="#3D628D" stroke="#3D628D"/>
<path d="M18.3049 22.4044H1.19998C0.538391 22.4044 0 21.866 0 21.2044V1.19992C0 0.53833 0.538391 -6.10352e-05 1.19998 -6.10352e-05H18.3049C18.9665 -6.10352e-05 19.5049 0.53833 19.5049 1.19992V11.2021C19.5049 11.3082 19.4627 11.41 19.3877 11.485C19.3127 11.56 19.211 11.6021 19.1049 11.6021C18.9988 11.6021 18.897 11.56 18.822 11.485C18.747 11.41 18.7049 11.3082 18.7049 11.2021V1.19992C18.7049 1.09383 18.6627 0.992094 18.5877 0.917081C18.5127 0.842067 18.411 0.799925 18.3049 0.799925H1.19998C1.09389 0.799925 0.992155 0.842067 0.917142 0.917081C0.842128 0.992094 0.799986 1.09383 0.799986 1.19992V21.2044C0.799986 21.3105 0.842128 21.4122 0.917142 21.4872C0.992155 21.5622 1.09389 21.6044 1.19998 21.6044H18.3049C18.411 21.6044 18.5127 21.5622 18.5877 21.4872C18.6627 21.4122 18.7049 21.3105 18.7049 21.2044V20.434C18.7049 20.3279 18.747 20.2262 18.822 20.1512C18.897 20.0761 18.9988 20.034 19.1049 20.034C19.211 20.034 19.3127 20.0761 19.3877 20.1512C19.4627 20.2262 19.5049 20.3279 19.5049 20.434V21.2044C19.5049 21.866 18.9665 22.4044 18.3049 22.4044Z" fill="#3D628D" stroke="#3D628D"/>
<path d="M19.1049 11.7737C18.9988 11.7737 18.897 11.7315 18.822 11.6565C18.747 11.5815 18.7049 11.4798 18.7049 11.3737V11.2021C18.7049 11.096 18.747 10.9943 18.822 10.9192C18.897 10.8442 18.9988 10.8021 19.1049 10.8021C19.211 10.8021 19.3127 10.8442 19.3877 10.9192C19.4627 10.9943 19.5049 11.096 19.5049 11.2021V11.3737C19.5049 11.4798 19.4627 11.5815 19.3877 11.6565C19.3127 11.7315 19.211 11.7737 19.1049 11.7737ZM13.7578 16.1572C13.6707 16.1577 13.5858 16.1297 13.5161 16.0775C13.4464 16.0254 13.3956 15.9518 13.3716 15.8682C13.3475 15.7845 13.3514 15.6952 13.3827 15.614C13.414 15.5327 13.471 15.4639 13.545 15.418L18.8125 12.1221C18.9023 12.068 19.0098 12.0514 19.1118 12.0758C19.2138 12.1002 19.3021 12.1637 19.3577 12.2526C19.4134 12.3415 19.4319 12.4486 19.4093 12.551C19.3867 12.6534 19.3248 12.7429 19.2369 12.8001L13.9694 16.096C13.9061 16.1361 13.8327 16.1573 13.7578 16.1572ZM15.4317 18.8652C15.3447 18.8656 15.2598 18.8377 15.1901 18.7855C15.1204 18.7333 15.0696 18.6598 15.0455 18.5761C15.0214 18.4924 15.0253 18.4032 15.0566 18.3219C15.0879 18.2407 15.1449 18.1719 15.2189 18.126L20.4864 14.8296C20.5763 14.7756 20.6838 14.759 20.7858 14.7834C20.8877 14.8078 20.976 14.8713 21.0317 14.9601C21.0873 15.049 21.1058 15.1562 21.0832 15.2586C21.0606 15.361 20.9987 15.4504 20.9108 15.5076L15.6433 18.804C15.58 18.844 15.5066 18.8652 15.4317 18.8652Z" fill="#3D628D" stroke="#3D628D"/>
<path d="M21.4264 16.0297C21.2228 16.0304 21.0223 15.9787 20.8444 15.8796C20.6665 15.7805 20.517 15.6373 20.4105 15.4637L18.6329 12.5877C18.4665 12.3181 18.4134 11.9936 18.4851 11.685C18.5568 11.3763 18.7475 11.1085 19.0157 10.9398L19.5985 10.575C19.731 10.4913 19.8789 10.4349 20.0335 10.4091C20.1881 10.3833 20.3463 10.3886 20.4989 10.4246C20.6522 10.46 20.797 10.5256 20.9247 10.6176C21.0524 10.7095 21.1606 10.826 21.2428 10.9602L23.0204 13.8357C23.1866 14.1054 23.2396 14.4298 23.1679 14.7384C23.0962 15.047 22.9057 15.3148 22.6376 15.4837L22.0548 15.8481C21.8666 15.9665 21.6488 16.0295 21.4264 16.0297ZM20.2285 11.1934C20.1565 11.1934 20.0857 11.2134 20.0225 11.2526L19.4397 11.6174C19.2541 11.7334 19.1977 11.9798 19.3133 12.167L21.0909 15.0425C21.1178 15.0867 21.1534 15.125 21.1955 15.1553C21.2375 15.1855 21.2852 15.207 21.3356 15.2185C21.4368 15.2425 21.5416 15.2249 21.6304 15.1693L22.2132 14.8049C22.3984 14.6889 22.4552 14.4425 22.3396 14.2553L20.5621 11.3798C20.5271 11.3227 20.4781 11.2756 20.4197 11.2429C20.3612 11.2103 20.2954 11.1932 20.2285 11.1934ZM14.2294 20.5328C14.0256 20.5336 13.8251 20.4818 13.6471 20.3826C13.4691 20.2833 13.3198 20.1398 13.2134 19.966L11.4362 17.0905C11.2697 16.8209 11.2165 16.4965 11.2881 16.1879C11.3597 15.8793 11.5504 15.6115 11.8186 15.4429L12.4014 15.0781C12.534 14.9945 12.6818 14.9381 12.8364 14.9122C12.991 14.8864 13.1492 14.8917 13.3018 14.9277C13.4551 14.9631 13.5999 15.0288 13.7276 15.1207C13.8554 15.2127 13.9635 15.3291 14.0458 15.4633L15.8233 18.3388C15.9895 18.6086 16.0425 18.933 15.9708 19.2415C15.8991 19.5501 15.7086 19.818 15.4405 19.9868L14.8578 20.3512C14.6662 20.4712 14.4494 20.5328 14.2294 20.5328ZM13.0314 15.6969C12.9594 15.6969 12.8886 15.7169 12.8254 15.7561L12.2426 16.1209C12.1534 16.1772 12.0901 16.2665 12.0665 16.3693C12.0428 16.472 12.0607 16.58 12.1162 16.6697L13.8938 19.5456C13.9207 19.5896 13.956 19.6278 13.9978 19.6581C14.0395 19.6883 14.0869 19.71 14.137 19.7218C14.1872 19.7336 14.2392 19.7354 14.2901 19.727C14.341 19.7186 14.3897 19.7002 14.4334 19.6728L15.0162 19.3084C15.2014 19.1924 15.2582 18.946 15.1426 18.7588L13.365 15.8833C13.33 15.8262 13.281 15.7791 13.2226 15.7464C13.1642 15.7138 13.0983 15.6967 13.0314 15.6969ZM21.5044 24C21.3007 24.0007 21.1001 23.949 20.9222 23.8497C20.7442 23.7504 20.5948 23.607 20.4885 23.4332L16.8621 17.5665C16.8331 17.5218 16.8133 17.4717 16.8039 17.4193C16.7945 17.3669 16.7957 17.3131 16.8073 17.2611C16.819 17.2091 16.8409 17.16 16.8719 17.1166C16.9028 17.0732 16.942 17.0364 16.9874 17.0084C17.0327 16.9804 17.0832 16.9617 17.1358 16.9535C17.1884 16.9452 17.2422 16.9476 17.2939 16.9604C17.3456 16.9733 17.3943 16.9963 17.4369 17.0282C17.4796 17.06 17.5155 17.1001 17.5425 17.1461L21.1688 23.0128C21.1957 23.0568 21.2311 23.095 21.2728 23.1252C21.3146 23.1554 21.3619 23.1771 21.4121 23.1889C21.4623 23.2008 21.5143 23.2025 21.5652 23.1941C21.616 23.1857 21.6647 23.1673 21.7084 23.14L22.0864 22.9028C22.1757 22.8466 22.2392 22.7573 22.263 22.6545C22.2867 22.5517 22.2688 22.4437 22.2132 22.354L18.5869 16.4869C18.5579 16.4422 18.5381 16.3922 18.5287 16.3397C18.5193 16.2873 18.5204 16.2335 18.5321 16.1815C18.5438 16.1295 18.5657 16.0804 18.5966 16.037C18.6275 15.9936 18.6668 15.9568 18.7121 15.9288C18.7575 15.9008 18.8079 15.8821 18.8606 15.8739C18.9132 15.8657 18.967 15.868 19.0187 15.8808C19.0704 15.8937 19.119 15.9167 19.1617 15.9486C19.2044 15.9805 19.2403 16.0205 19.2673 16.0665L22.8936 21.9332C23.06 22.2028 23.1131 22.5272 23.0414 22.8358C22.9697 23.1444 22.779 23.4121 22.5108 23.5808L22.1328 23.818C21.9448 23.9368 21.7269 23.9999 21.5044 24Z" fill="#3D628D"/>
<path d="M19.8105 10.9138H19.8145M12.6134 15.4169H12.6174M21.4264 16.0297C21.2228 16.0304 21.0223 15.9787 20.8444 15.8796C20.6665 15.7805 20.517 15.6373 20.4105 15.4637L18.6329 12.5877C18.4665 12.3181 18.4134 11.9936 18.4851 11.685C18.5568 11.3763 18.7475 11.1085 19.0157 10.9398L19.5985 10.575C19.731 10.4913 19.8789 10.4349 20.0335 10.4091C20.1881 10.3833 20.3463 10.3886 20.4989 10.4246C20.6522 10.46 20.797 10.5256 20.9247 10.6176C21.0524 10.7095 21.1606 10.826 21.2428 10.9602L23.0204 13.8357C23.1866 14.1054 23.2396 14.4298 23.1679 14.7384C23.0962 15.047 22.9057 15.3148 22.6376 15.4837L22.0548 15.8481C21.8666 15.9665 21.6488 16.0295 21.4264 16.0297ZM20.2285 11.1934C20.1565 11.1934 20.0857 11.2134 20.0225 11.2526L19.4397 11.6174C19.2541 11.7334 19.1977 11.9798 19.3133 12.167L21.0909 15.0425C21.1178 15.0867 21.1534 15.125 21.1955 15.1553C21.2375 15.1855 21.2852 15.207 21.3356 15.2185C21.4368 15.2425 21.5416 15.2249 21.6304 15.1693L22.2132 14.8049C22.3984 14.6889 22.4552 14.4425 22.3396 14.2553L20.5621 11.3798C20.5271 11.3227 20.4781 11.2756 20.4197 11.2429C20.3612 11.2103 20.2954 11.1932 20.2285 11.1934ZM14.2294 20.5328C14.0256 20.5336 13.8251 20.4818 13.6471 20.3826C13.4691 20.2833 13.3198 20.1398 13.2134 19.966L11.4362 17.0905C11.2697 16.8209 11.2165 16.4965 11.2881 16.1879C11.3597 15.8793 11.5504 15.6115 11.8186 15.4429L12.4014 15.0781C12.534 14.9945 12.6818 14.9381 12.8364 14.9122C12.991 14.8864 13.1492 14.8917 13.3018 14.9277C13.4551 14.9631 13.5999 15.0288 13.7276 15.1207C13.8554 15.2127 13.9635 15.3291 14.0458 15.4633L15.8233 18.3388C15.9895 18.6086 16.0425 18.933 15.9708 19.2415C15.8991 19.5501 15.7086 19.818 15.4405 19.9868L14.8578 20.3512C14.6662 20.4712 14.4494 20.5328 14.2294 20.5328ZM13.0314 15.6969C12.9594 15.6969 12.8886 15.7169 12.8254 15.7561L12.2426 16.1209C12.1534 16.1772 12.0901 16.2665 12.0665 16.3693C12.0428 16.472 12.0607 16.58 12.1162 16.6697L13.8938 19.5456C13.9207 19.5896 13.956 19.6278 13.9978 19.6581C14.0395 19.6883 14.0869 19.71 14.137 19.7218C14.1872 19.7336 14.2392 19.7354 14.2901 19.727C14.341 19.7186 14.3897 19.7002 14.4334 19.6728L15.0162 19.3084C15.2014 19.1924 15.2582 18.946 15.1426 18.7588L13.365 15.8833C13.33 15.8262 13.281 15.7791 13.2226 15.7464C13.1642 15.7138 13.0983 15.6967 13.0314 15.6969ZM21.5044 24C21.3007 24.0007 21.1001 23.949 20.9222 23.8497C20.7442 23.7504 20.5948 23.607 20.4885 23.4332L16.8621 17.5665C16.8331 17.5218 16.8133 17.4717 16.8039 17.4193C16.7945 17.3669 16.7957 17.3131 16.8073 17.2611C16.819 17.2091 16.8409 17.16 16.8719 17.1166C16.9028 17.0732 16.942 17.0364 16.9874 17.0084C17.0327 16.9804 17.0832 16.9617 17.1358 16.9535C17.1884 16.9452 17.2422 16.9476 17.2939 16.9604C17.3456 16.9733 17.3943 16.9963 17.4369 17.0282C17.4796 17.06 17.5155 17.1001 17.5425 17.1461L21.1688 23.0128C21.1957 23.0568 21.2311 23.095 21.2728 23.1252C21.3146 23.1554 21.3619 23.1771 21.4121 23.1889C21.4623 23.2008 21.5143 23.2025 21.5652 23.1941C21.616 23.1857 21.6647 23.1673 21.7084 23.14L22.0864 22.9028C22.1757 22.8466 22.2392 22.7573 22.263 22.6545C22.2867 22.5517 22.2688 22.4437 22.2132 22.354L18.5869 16.4869C18.5579 16.4422 18.5381 16.3922 18.5287 16.3397C18.5193 16.2873 18.5204 16.2335 18.5321 16.1815C18.5438 16.1295 18.5657 16.0804 18.5966 16.037C18.6275 15.9936 18.6668 15.9568 18.7121 15.9288C18.7575 15.9008 18.8079 15.8821 18.8606 15.8739C18.9132 15.8657 18.967 15.868 19.0187 15.8808C19.0704 15.8937 19.119 15.9167 19.1617 15.9486C19.2044 15.9805 19.2403 16.0205 19.2673 16.0665L22.8936 21.9332C23.06 22.2028 23.1131 22.5272 23.0414 22.8358C22.9697 23.1444 22.779 23.4121 22.5108 23.5808L22.1328 23.818C21.9448 23.9368 21.7269 23.9999 21.5044 24Z" stroke="#3D628D"/>
</g>
<defs>
<clipPath id="clip0_6_1060">
<rect width="24" height="24" fill="white"/>
</clipPath>
</defs>
</svg>
