<svg width="24" height="25" viewBox="0 0 24 25" fill="none" xmlns="http://www.w3.org/2000/svg">
<g clip-path="url(#clip0_846_18683)">
<path d="M0 9.55469H24V15.4634H0V9.55469Z" fill="white"/>
<path d="M0 4.5H24V9.82463H0V4.5Z" fill="#F46A6A"/>
<path d="M0 15.1738H24V20.4996H0V15.1738Z" fill="black"/>
<path d="M14.2189 11.4858C14.1877 11.4685 14.1532 11.4408 14.1417 11.4236C14.1244 11.3971 14.1348 11.3971 14.2062 11.4178C14.3352 11.4547 14.417 11.4408 14.4999 11.366L14.5725 11.3003L14.6578 11.3464C14.705 11.3717 14.7545 11.389 14.7695 11.3856C14.8064 11.3752 14.8836 11.2703 14.8801 11.2335C14.8767 11.1886 14.9124 11.2001 14.9296 11.2496C14.9642 11.3464 14.9135 11.457 14.826 11.4823C14.7833 11.4938 14.743 11.4904 14.6785 11.4662C14.599 11.4362 14.5852 11.4374 14.5449 11.4696C14.455 11.5434 14.3306 11.5503 14.2189 11.4869V11.4858ZM14.5368 11.1759C14.5057 11.1333 14.4677 10.9731 14.4804 10.934C14.4907 10.8994 14.5022 10.8925 14.5311 10.9029C14.5817 10.9201 14.5933 10.957 14.5863 11.0849C14.5806 11.1886 14.5656 11.2162 14.5368 11.177V11.1759ZM10.7962 11.0607C10.7858 11.1379 10.9252 11.3314 10.9874 11.366C10.9448 11.3867 10.8918 11.3775 10.8527 11.4005C10.6338 11.6344 9.83542 12.4684 9.68912 12.6677C10.1211 12.677 10.6004 12.662 11.0059 12.6413C11.0059 12.3268 11.2835 12.3106 11.4701 12.1966C11.5658 12.3579 11.8065 12.3463 11.8365 12.5894V13.6354H8.14426C8.07975 13.9419 7.82054 14.1769 7.45996 14.0801C7.57171 13.9557 7.75949 13.9119 7.8263 13.7403C7.88275 13.3624 7.7134 13.1297 7.60281 12.9154C7.78483 12.844 7.81248 12.8267 7.99795 12.6942C7.86778 13.117 8.33549 13.0698 8.68225 13.0606C8.69377 12.9177 8.68686 12.7484 8.58433 12.7265C8.71681 12.6747 8.7387 12.6574 8.95067 12.465V13.0341C9.77552 13.0341 10.6649 13.0272 11.507 13.0272C11.507 12.8486 11.5508 12.5629 11.4194 12.5629C11.2939 12.5629 11.4137 12.9293 11.3158 12.9293H9.34121C9.34121 12.8509 9.3389 12.6862 9.3389 12.5675C9.423 12.4777 9.41263 12.4857 9.98403 11.874C10.0405 11.8129 10.4425 11.4247 10.7928 11.0607H10.7962ZM15.7303 11.0446C15.8685 11.124 15.9768 11.2335 16.1462 11.2796C16.1266 11.3544 16.0644 11.3844 16.0483 11.4627V13.0583C16.2372 13.1032 16.2764 12.988 16.3662 12.927C16.3904 13.1827 16.5425 13.4327 16.5379 13.6331H15.7315V11.0434L15.7303 11.0446ZM14.6555 11.8994C14.6555 11.8994 14.9492 11.6344 14.9492 11.624V13.0168H15.1601C15.1601 12.4857 15.1531 11.9477 15.1531 11.4547C15.2384 11.3625 15.4066 11.23 15.4492 11.1367V13.6308C14.8536 13.6308 13.7431 13.632 13.5956 13.632C13.568 13.1147 13.5634 12.5779 14.1278 12.6931V12.4823C14.1106 12.4466 14.0795 12.4915 14.0725 12.4443C14.1624 12.3486 14.1924 12.3244 14.4343 12.0975C14.4343 12.3705 14.4389 13.0168 14.4389 13.0168H14.6532C14.6532 13.0168 14.6555 11.9362 14.6555 11.9005V11.8994ZM13.9596 13.003C13.9988 13.0663 14.1348 13.0652 14.1278 12.9581C14.1048 12.8694 13.9274 12.9028 13.9596 13.003Z" fill="black"/>
<path d="M8.70919 13.9292C8.70919 13.8624 8.65851 13.8083 8.5963 13.8083C8.53409 13.8083 8.4834 13.8624 8.4834 13.9292C8.4834 13.996 8.53409 14.0502 8.5963 14.0502C8.65851 14.0502 8.70919 13.996 8.70919 13.9292ZM12.0881 11.048C12.2263 11.1275 12.3346 11.237 12.5039 11.283C12.4844 11.3579 12.4221 11.3879 12.406 11.4662V13.0618C12.595 13.1067 12.6341 12.9915 12.724 12.9304C12.7482 13.1862 12.9002 13.4362 12.8956 13.6366H12.0892V11.0469L12.0881 11.048Z" fill="black"/>
</g>
<defs>
<clipPath id="clip0_846_18683">
<rect width="24" height="24" fill="white" transform="translate(0 0.5)"/>
</clipPath>
</defs>
</svg>
